<?xml version="1.0" encoding="UTF-8" standalone="no"?>
<!-- Created with Inkscape (http://www.inkscape.org/) -->

<svg
   xmlns:dc="http://purl.org/dc/elements/1.1/"
   xmlns:cc="http://creativecommons.org/ns#"
   xmlns:rdf="http://www.w3.org/1999/02/22-rdf-syntax-ns#"
   xmlns:svg="http://www.w3.org/2000/svg"
   xmlns="http://www.w3.org/2000/svg"
   xmlns:sodipodi="http://sodipodi.sourceforge.net/DTD/sodipodi-0.dtd"
   xmlns:inkscape="http://www.inkscape.org/namespaces/inkscape"
   width="360.01001mm"
   height="360mm"
   viewBox="0 0 360.01001 360"
   version="1.1"
   id="svg8"
   inkscape:version="0.92.4 (5da689c313, 2019-01-14)"
   sodipodi:docname="dessin.svg">
  <defs
     id="defs2" />
  <sodipodi:namedview
     id="base"
     pagecolor="#ffffff"
     bordercolor="#666666"
     borderopacity="1.0"
     inkscape:pageopacity="0.0"
     inkscape:pageshadow="2"
     inkscape:zoom="0.35"
     inkscape:cx="-1132.126"
     inkscape:cy="1070.2362"
     inkscape:document-units="mm"
     inkscape:current-layer="layer1"
     showgrid="false"
     inkscape:window-width="1920"
     inkscape:window-height="1001"
     inkscape:window-x="-9"
     inkscape:window-y="-9"
     inkscape:window-maximized="1"
     fit-margin-top="0"
     fit-margin-left="0"
     fit-margin-right="0"
     fit-margin-bottom="0" />
  <metadata
     id="metadata5">
    <rdf:RDF>
      <cc:Work
         rdf:about="">
        <dc:format>image/svg+xml</dc:format>
        <dc:type
           rdf:resource="http://purl.org/dc/dcmitype/StillImage" />
        <dc:title></dc:title>
      </cc:Work>
    </rdf:RDF>
  </metadata>
  <g
     inkscape:label="Calque 1"
     inkscape:groupmode="layer"
     id="layer1"
     transform="translate(-72,-72)">
    <path
       d="m94 388.55-3.54 3.54 5.43 5.43L72 421.39 82.61 432l23.89-23.89 5.43 5.43 3.54-3.54L94 388.55zm-11.39 36.38-3.54-3.54 20.35-20.35 3.54 3.54-20.35 20.35zm330.93-313.01-5.43-5.43L432 82.61 421.39 72 397.5 95.89l-5.43-5.43-3.52 3.54L410 115.45l3.54-3.53zm-12.5-12.5 20.35-20.35 3.54 3.54-20.35 20.35-3.54-3.54zM113.07 318.4l72.52 72.52-11.31 11.31-72.52-72.52 11.31-11.31zM98.2 333.28l72.52 72.52-11.31 11.31-72.52-72.52 11.31-11.31zm-14.88 14.87 72.52 72.52-11.31 11.31-72.52-72.52 11.31-11.31zm275.03-181.04 3.54-3.54-21.46-21.46-3.54 3.54 5.43 5.43L252 241.39l-90.32-90.32 5.43-5.43-3.54-3.54-21.46 21.46 3.54 3.54 5.43-5.43L241.39 252l-90.32 90.32-5.43-5.43-3.54 3.54 21.46 21.46 3.54-3.54-5.43-5.43L252 262.61l90.32 90.32-5.43 5.43 3.54 3.54 21.46-21.46-3.54-3.54-5.43 5.43L262.61 252l90.32-90.32 5.42 5.43zm-200.2 182.28-3.54-3.54 90.32-90.32 3.54 3.54-90.32 90.32zm187.7 0L154.61 158.14l3.54-3.54 191.24 191.24-3.54 3.55zm-86.78-100.92-3.54-3.54 90.32-90.32 3.54 3.54-90.32 90.32zm131.86-62.87-72.52-72.52 11.31-11.31 72.52 72.52-11.31 11.31zm14.87-14.88L333.28 98.2l11.31-11.31 72.52 72.52-11.31 11.31zm14.88-14.87-72.52-72.52 11.31-11.31 72.52 72.52-11.31 11.31zM90.46 111.92l3.54 3.54L115.45 94l-3.54-3.54-5.43 5.43L82.61 72 72 82.61l23.89 23.89-5.43 5.42zM79.07 82.61l3.54-3.54 20.35 20.35-3.54 3.54-20.35-20.35zm334.47 309.47-3.54-3.54L388.55 410l3.54 3.54 5.43-5.43L421.39 432 432 421.39l-23.89-23.89 5.43-5.42zm11.39 29.31-3.54 3.54-20.35-20.35 3.54-3.54 20.35 20.35zM101.76 174.28l72.52-72.52 11.31 11.31-72.52 72.52-11.31-11.31zm-14.88-14.87 72.52-72.52 11.31 11.31-72.51 72.52-11.32-11.31zm-14.87-14.88 72.52-72.52 11.31 11.31-72.52 72.52-11.31-11.31zm330.23 185.19-72.52 72.52-11.31-11.31 72.52-72.52 11.31 11.31zm14.88 14.87-72.52 72.52-11.31-11.31 72.52-72.52 11.31 11.31zm14.87 14.88-72.52 72.52-11.31-11.31 72.52-72.52 11.31 11.31z"
       id="path5"
       inkscape:connector-curvature="0" />
  </g>
</svg>
